#!OML:ASF H:\ManfredETheater\Project 1\Capture day 1\Session 1\subject.ASF
:FULLY-SPECIFIED
:DEGREES
188
root -3.14676 16.1028 39.3425 6.04465 -2.93035 1.85512
lowerback 4.89651 0.799323 -4.93822
upperback -3.27481 0.629972 -1.09505
thorax -6.21443 0.495199 1.56189
lowerneck -19.0337 -1.18256 -2.36802
upperneck 26.8225 -1.21695 0.995575
head 12.0013 -0.65945 0.58274
rclavicle -4.72114e-016 7.55382e-015
rhumerus -59.206 -1.09499 -93.7757
rradius 98.1461
rwrist -3.07913
rhand -18.1383 9.7244
rfingers 7.12502
rthumb 8.13681 -20.0989
lclavicle -4.72114e-016 7.55382e-015
lhumerus -63.9098 -12.1989 97.7637
lradius 108.861
lwrist 20.4622
lhand -23.502 -15.596
lfingers 7.12502
lthumb 2.95829 14.3632
rfemur -12.2093 -11.0412 5.49605
rtibia 102.192
rfoot -7.07204 -6.69346
rtoes -18.3755
lfemur -28.4497 -4.73551 -27.5003
ltibia 55.963
lfoot -27.1675 -3.55627
ltoes 2.71313
189
root -3.1603 16.0309 39.7565 6.15271 -3.15551 1.65736
lowerback 4.71521 0.692074 -4.56233
upperback -3.17695 0.530502 -1.0757
thorax -5.99371 0.425169 1.38525
lowerneck -19.0896 -1.11136 -2.28277
upperneck 26.8921 -1.11292 0.894975
head 12.0365 -0.618249 0.54683
rclavicle 2.13321e-014 -1.59028e-014
rhumerus -60.0265 -1.71927 -93.5257
rradius 96.7817
rwrist -4.91082
rhand -19.1654 9.55355
rfingers 7.12502
rthumb 7.14552 -20.3058
lclavicle 2.13321e-014 -1.59028e-014
lhumerus -59.8866 -11.6524 97.6272
lradius 107.797
lwrist 19.277
lhand -23.8588 -15.5387
lfingers 7.12502
lthumb 2.61371 14.425
rfemur -16.6238 -11.1821 6.82381
rtibia 103.255
rfoot -8.03193 -6.70487
rtoes -18.6234
lfemur -27.0664 -4.46345 -27.4695
ltibia 56.4847
lfoot -28.7707 -3.2857
ltoes 3.14562
190
root -3.17259 15.9664 40.1734 6.25252 -3.50247 1.69881
lowerback 4.52357 0.596072 -4.50488
upperback -3.12455 0.419325 -1.07556
thorax -5.82079 0.363977 1.36654
lowerneck -19.1151 -0.997404 -2.15759
upperneck 27.0056 -0.942075 0.729073
head 12.0813 -0.552225 0.490346
rclavicle -5.72748e-015 6.75868e-015
rhumerus -61.0729 -1.76572 -93.3651
rradius 95.9632
rwrist -6.76744
rhand -19.8596 9.58065
rfingers 7.12502
rthumb 6.47532 -20.3004
lclavicle -5.72748e-015 6.75868e-015
lhumerus -56.2065 -10.7657 97.6006
lradius 107.159
lwrist 17.7565
lhand -24.2688 -15.3839
lfingers 7.12502
lthumb 2.21773 14.5843
rfemur -21.0378 -11.0239 8.03199
rtibia 103.76
rfoot -8.94332 -6.67005
rtoes -19.3115
lfemur -25.482 -4.21322 -27.7433
ltibia 56.6596
lfoot -30.1217 -2.86402
ltoes 3.71779
191
root -3.18572 15.9088 40.5957 6.33255 -3.89458 1.94239
lowerback 4.32281 0.481714 -4.72401
upperback -3.10418 0.26291 -1.09078
thorax -5.67747 0.29193 1.48969
lowerneck -19.1433 -0.844039 -1.9875
upperneck 27.1612 -0.71545 0.516776
head 12.1427 -0.463297 0.417595
rclavicle -2.17421e-015 1.59028e-015
rhumerus -62.2939 -1.30173 -93.325
rradius 95.6598
rwrist -8.40516
rhand -20.1442 9.79664
rfingers 7.12502
rthumb 6.20058 -20.0926
lclavicle -2.17421e-015 1.59028e-015
lhumerus -52.9046 -9.64534 97.7119
lradius 107.025
lwrist 16.2261
lhand -24.6796 -15.1445
lfingers 7.12502
lthumb 1.82102 14.8275
rfemur -25.3344 -10.6224 9.10986
rtibia 103.694
rfoot -9.83005 -6.64517
rtoes -20.3459
lfemur -23.7031 -4.039 -28.2786
ltibia 56.5203
lfoot -31.2063 -2.26538
ltoes 3.87235
192
root -3.20142 15.8594 41.0239 6.39405 -4.26727 2.3077
lowerback 4.1413 0.329374 -5.13643
upperback -3.12555 0.0412322 -1.10397
thorax -5.58564 0.196457 1.72744
lowerneck -19.1538 -0.650848 -1.76363
upperneck 27.3369 -0.436949 0.263005
head 12.2088 -0.351636 0.328231
rclavicle -7.41715e-015 1.74931e-014
rhumerus -63.6672 -0.443503 -93.4024
rradius 95.8127
rwrist -9.59307
rhand -20.0279 10.1191
rfingers 7.12502
rthumb 6.3129 -19.7669
lclavicle -7.41715e-015 1.74931e-014
lhumerus -50.0006 -8.43905 97.9749
lradius 107.415
lwrist 15.083
lhand -25.0295 -14.8312
lfingers 7.12502
lthumb 1.4831 15.1434
rfemur -29.4347 -10.0257 10.1086
rtibia 103.047
rfoot -10.6935 -6.69271
rtoes -21.6403
lfemur -21.7662 -3.95155 -28.9727
ltibia 56.1075
lfoot -31.9964 -1.53581
ltoes 3.46553
193
root -3.22087 15.8196 41.4597 6.39304 -4.55529 2.75111
lowerback 4.0111 0.125467 -5.68821
upperback -3.16923 -0.260852 -1.10678
thorax -5.53845 0.0679478 2.05951
lowerneck -19.1181 -0.427139 -1.4999
upperneck 27.5033 -0.121321 -0.0134667
head 12.2632 -0.222563 0.229265
rclavicle 2.06239e-014 1.63003e-014
rhumerus -65.1559 0.675078 -93.5707
rradius 96.3169
rwrist -10.2072
rhand -19.6087 10.5132
rfingers 7.12502
rthumb 6.71756 -19.3603
lclavicle 2.06239e-014 1.63003e-014
lhumerus -47.4525 -7.33186 98.3706
lradius 108.279
lwrist 14.6735
lhand -25.2797 -14.4605
lfingers 7.12502
lthumb 1.24142 15.5156
rfemur -33.2006 -9.3424 11.0026
rtibia 101.805
rfoot -11.5184 -6.81065
rtoes -23.0444
lfemur -19.6326 -3.96238 -29.762
ltibia 55.4377
lfoot -32.457 -0.790502
ltoes 2.61335
194
root -3.24525 15.7916 41.9028 6.32696 -4.73854 3.21254
lowerback 3.95014 -0.126099 -6.31811
upperback -3.22841 -0.635306 -1.08725
thorax -5.53543 -0.0913446 2.46374
lowerneck -19.0354 -0.184115 -1.21315
upperneck 27.6495 0.216656 -0.297552
head 12.3022 -0.0821549 0.126808
rclavicle -1.19209e-014 -1.11319e-014
rhumerus -66.7128 1.92154 -93.7872
rradius 97.0597
rwrist -10.2523
rhand -18.9733 10.9381
rfingers 7.12502
rthumb 7.33095 -18.9149
lclavicle -1.19209e-014 -1.11319e-014
lhumerus -45.2138 -6.48026 98.8542
lradius 109.54
lwrist 15.1852
lhand -25.4304 -14.071
lfingers 7.12502
lthumb 1.09585 15.906
rfemur -36.5729 -8.60815 11.831
rtibia 99.9625
rfoot -12.2196 -6.96852
rtoes -24.1992
lfemur -17.3192 -4.03674 -30.5551
ltibia 54.5239
lfoot -32.555 -0.163324
ltoes 1.35502
195
root -3.27383 15.7793 42.3569 6.18058 -4.78775 3.65585
lowerback 3.95449 -0.421844 -6.9592
upperback -3.29168 -1.07378 -1.04683
thorax -5.55961 -0.280076 2.90122
lowerneck -18.8955 0.0632039 -0.92447
upperneck 27.7726 0.558002 -0.574517
head 12.3227 0.0611459 0.02691
rclavicle -1.26477e-014 1.61016e-014
rhumerus -68.3064 3.18074 -94.0094
rradius 97.9363
rwrist -9.83196
rhand -18.2498 11.4084
rfingers 7.12502
rthumb 8.02922 -18.419
lclavicle -1.26477e-014 1.61016e-014
lhumerus -43.2598 -6.01087 99.3697
lradius 111.088
lwrist 16.5772
lhand -25.5183 -13.7037
lfingers 7.12502
lthumb 1.01101 16.2736
rfemur -39.4389 -7.88749 12.5853
rtibia 97.5015
rfoot -12.8087 -7.17395
rtoes -25.1053
lfemur -14.7948 -4.1737 -31.2968
ltibia 53.3595
lfoot -32.2799 0.249231
ltoes -0.236654
196
root -3.3073 15.7851 42.8213 5.96759 -4.74077 4.01487
lowerback 4.02107 -0.736869 -7.55699
upperback -3.34806 -1.53912 -0.970219
thorax -5.59928 -0.481997 3.35522
lowerneck -18.7349 0.304057 -0.648461
upperneck 27.8797 0.891989 -0.841162
head 12.3348 0.201521 -0.0684724
rclavicle -2.07295e-014 -7.7526e-015
rhumerus -69.8766 4.37679 -94.2018
rradius 98.8609
rwrist -9.15251
rhand -17.5169 11.8734
rfingers 7.12502
rthumb 8.73656 -17.9257
lclavicle -2.07295e-014 -7.7526e-015
lhumerus -41.5387 -5.98345 99.8457
lradius 112.813
lwrist 18.6584
lhand -25.5364 -13.4238
lfingers 7.12502
lthumb 0.993462 16.5536
rfemur -41.7991 -7.15688 13.3324
rtibia 94.4384
rfoot -13.2643 -7.44653
rtoes -25.6765
lfemur -12.1005 -4.31954 -31.8918
ltibia 51.9574
lfoot -31.6145 0.355593
ltoes -2.12805
